<mxfile host="app.diagrams.net" agent="Mozilla/5.0 (Windows NT 10.0; Win64; x64) AppleWebKit/537.36 (KHTML, like Gecko) Chrome/136.0.0.0 Safari/537.36" version="27.0.6">
  <diagram name="Page-1" id="v2CsFCMdesF7H1953rxB">
    <mxGraphModel dx="882" dy="437" grid="1" gridSize="10" guides="1" tooltips="1" connect="1" arrows="1" fold="1" page="1" pageScale="1" pageWidth="850" pageHeight="1100" math="0" shadow="0">
      <root>
        <mxCell id="0" />
        <mxCell id="1" parent="0" />
        <mxCell id="2XYRkLUEMQPlizlA2UG2-1" style="edgeStyle=orthogonalEdgeStyle;rounded=0;orthogonalLoop=1;jettySize=auto;html=1;fillColor=#dae8fc;strokeColor=#6c8ebf;" edge="1" parent="1" source="685odA_4j6y0BsG_PlKO-1">
          <mxGeometry relative="1" as="geometry">
            <mxPoint x="450" y="490" as="targetPoint" />
          </mxGeometry>
        </mxCell>
        <mxCell id="685odA_4j6y0BsG_PlKO-1" value="Data Dictionary" style="shape=table;startSize=30;container=1;collapsible=0;childLayout=tableLayout;strokeColor=#6c8ebf;fontSize=16;fontStyle=1;fillColor=#dae8fc;swimlaneFillColor=default;shadow=0;rounded=1;arcSize=8;perimeterSpacing=0;fillStyle=solid;" parent="1" vertex="1">
          <mxGeometry x="120" y="30" width="660" height="380" as="geometry" />
        </mxCell>
        <mxCell id="685odA_4j6y0BsG_PlKO-2" value="" style="shape=tableRow;horizontal=0;startSize=0;swimlaneHead=0;swimlaneBody=0;strokeColor=inherit;top=0;left=0;bottom=0;right=0;collapsible=0;dropTarget=0;fillColor=none;points=[[0,0.5],[1,0.5]];portConstraint=eastwest;fontSize=16;fontStyle=0;swimlaneFillColor=#000000;" parent="685odA_4j6y0BsG_PlKO-1" vertex="1">
          <mxGeometry y="30" width="660" height="30" as="geometry" />
        </mxCell>
        <mxCell id="685odA_4j6y0BsG_PlKO-3" value="&lt;b&gt;Column&lt;/b&gt;" style="shape=partialRectangle;html=1;whiteSpace=wrap;connectable=0;strokeColor=inherit;overflow=hidden;fillColor=none;top=0;left=0;bottom=0;right=0;pointerEvents=1;fontSize=16;swimlaneFillColor=#000000;" parent="685odA_4j6y0BsG_PlKO-2" vertex="1">
          <mxGeometry width="140" height="30" as="geometry">
            <mxRectangle width="140" height="30" as="alternateBounds" />
          </mxGeometry>
        </mxCell>
        <mxCell id="685odA_4j6y0BsG_PlKO-4" value="&lt;b&gt;Type&lt;/b&gt;" style="shape=partialRectangle;html=1;whiteSpace=wrap;connectable=0;strokeColor=inherit;overflow=hidden;fillColor=none;top=0;left=0;bottom=0;right=0;pointerEvents=1;fontSize=16;swimlaneFillColor=#000000;" parent="685odA_4j6y0BsG_PlKO-2" vertex="1">
          <mxGeometry x="140" width="74" height="30" as="geometry">
            <mxRectangle width="74" height="30" as="alternateBounds" />
          </mxGeometry>
        </mxCell>
        <mxCell id="685odA_4j6y0BsG_PlKO-5" value="&lt;b&gt;Description&lt;/b&gt;" style="shape=partialRectangle;html=1;whiteSpace=wrap;connectable=0;strokeColor=inherit;overflow=hidden;fillColor=none;top=0;left=0;bottom=0;right=0;pointerEvents=1;fontSize=16;swimlaneFillColor=#000000;" parent="685odA_4j6y0BsG_PlKO-2" vertex="1">
          <mxGeometry x="214" width="446" height="30" as="geometry">
            <mxRectangle width="446" height="30" as="alternateBounds" />
          </mxGeometry>
        </mxCell>
        <mxCell id="685odA_4j6y0BsG_PlKO-6" value="" style="shape=tableRow;horizontal=0;startSize=0;swimlaneHead=0;swimlaneBody=0;strokeColor=inherit;top=0;left=0;bottom=0;right=0;collapsible=0;dropTarget=0;fillColor=none;points=[[0,0.5],[1,0.5]];portConstraint=eastwest;fontSize=16;swimlaneFillColor=#000000;" parent="685odA_4j6y0BsG_PlKO-1" vertex="1">
          <mxGeometry y="60" width="660" height="40" as="geometry" />
        </mxCell>
        <mxCell id="685odA_4j6y0BsG_PlKO-7" value="UDI" style="shape=partialRectangle;html=1;whiteSpace=wrap;connectable=0;strokeColor=inherit;overflow=hidden;fillColor=none;top=0;left=0;bottom=0;right=0;pointerEvents=1;fontSize=16;swimlaneFillColor=#000000;" parent="685odA_4j6y0BsG_PlKO-6" vertex="1">
          <mxGeometry width="140" height="40" as="geometry">
            <mxRectangle width="140" height="40" as="alternateBounds" />
          </mxGeometry>
        </mxCell>
        <mxCell id="685odA_4j6y0BsG_PlKO-8" value="Integer" style="shape=partialRectangle;html=1;whiteSpace=wrap;connectable=0;strokeColor=inherit;overflow=hidden;fillColor=none;top=0;left=0;bottom=0;right=0;pointerEvents=1;fontSize=16;swimlaneFillColor=#000000;" parent="685odA_4j6y0BsG_PlKO-6" vertex="1">
          <mxGeometry x="140" width="74" height="40" as="geometry">
            <mxRectangle width="74" height="40" as="alternateBounds" />
          </mxGeometry>
        </mxCell>
        <mxCell id="685odA_4j6y0BsG_PlKO-9" value="Unique identifier for each data record" style="shape=partialRectangle;html=1;whiteSpace=wrap;connectable=0;strokeColor=inherit;overflow=hidden;fillColor=none;top=0;left=0;bottom=0;right=0;pointerEvents=1;fontSize=16;swimlaneFillColor=#000000;" parent="685odA_4j6y0BsG_PlKO-6" vertex="1">
          <mxGeometry x="214" width="446" height="40" as="geometry">
            <mxRectangle width="446" height="40" as="alternateBounds" />
          </mxGeometry>
        </mxCell>
        <mxCell id="685odA_4j6y0BsG_PlKO-10" value="" style="shape=tableRow;horizontal=0;startSize=0;swimlaneHead=0;swimlaneBody=0;strokeColor=inherit;top=0;left=0;bottom=0;right=0;collapsible=0;dropTarget=0;fillColor=none;points=[[0,0.5],[1,0.5]];portConstraint=eastwest;fontSize=16;swimlaneFillColor=#000000;" parent="685odA_4j6y0BsG_PlKO-1" vertex="1">
          <mxGeometry y="100" width="660" height="40" as="geometry" />
        </mxCell>
        <mxCell id="685odA_4j6y0BsG_PlKO-11" value="Product ID" style="shape=partialRectangle;html=1;whiteSpace=wrap;connectable=0;strokeColor=inherit;overflow=hidden;fillColor=none;top=0;left=0;bottom=0;right=0;pointerEvents=1;fontSize=16;swimlaneFillColor=#000000;" parent="685odA_4j6y0BsG_PlKO-10" vertex="1">
          <mxGeometry width="140" height="40" as="geometry">
            <mxRectangle width="140" height="40" as="alternateBounds" />
          </mxGeometry>
        </mxCell>
        <mxCell id="685odA_4j6y0BsG_PlKO-12" value="String" style="shape=partialRectangle;html=1;whiteSpace=wrap;connectable=0;strokeColor=inherit;overflow=hidden;fillColor=none;top=0;left=0;bottom=0;right=0;pointerEvents=1;fontSize=16;swimlaneFillColor=#000000;" parent="685odA_4j6y0BsG_PlKO-10" vertex="1">
          <mxGeometry x="140" width="74" height="40" as="geometry">
            <mxRectangle width="74" height="40" as="alternateBounds" />
          </mxGeometry>
        </mxCell>
        <mxCell id="685odA_4j6y0BsG_PlKO-13" value="Identifier for the specific product being processed" style="shape=partialRectangle;html=1;whiteSpace=wrap;connectable=0;strokeColor=inherit;overflow=hidden;fillColor=none;top=0;left=0;bottom=0;right=0;pointerEvents=1;fontSize=16;swimlaneFillColor=#000000;" parent="685odA_4j6y0BsG_PlKO-10" vertex="1">
          <mxGeometry x="214" width="446" height="40" as="geometry">
            <mxRectangle width="446" height="40" as="alternateBounds" />
          </mxGeometry>
        </mxCell>
        <mxCell id="685odA_4j6y0BsG_PlKO-18" style="shape=tableRow;horizontal=0;startSize=0;swimlaneHead=0;swimlaneBody=0;strokeColor=inherit;top=0;left=0;bottom=0;right=0;collapsible=0;dropTarget=0;fillColor=none;points=[[0,0.5],[1,0.5]];portConstraint=eastwest;fontSize=16;swimlaneFillColor=#000000;" parent="685odA_4j6y0BsG_PlKO-1" vertex="1">
          <mxGeometry y="140" width="660" height="40" as="geometry" />
        </mxCell>
        <mxCell id="685odA_4j6y0BsG_PlKO-19" value="Type" style="shape=partialRectangle;html=1;whiteSpace=wrap;connectable=0;strokeColor=inherit;overflow=hidden;fillColor=none;top=0;left=0;bottom=0;right=0;pointerEvents=1;fontSize=16;swimlaneFillColor=#000000;" parent="685odA_4j6y0BsG_PlKO-18" vertex="1">
          <mxGeometry width="140" height="40" as="geometry">
            <mxRectangle width="140" height="40" as="alternateBounds" />
          </mxGeometry>
        </mxCell>
        <mxCell id="685odA_4j6y0BsG_PlKO-20" value="Category" style="shape=partialRectangle;html=1;whiteSpace=wrap;connectable=0;strokeColor=inherit;overflow=hidden;fillColor=none;top=0;left=0;bottom=0;right=0;pointerEvents=1;fontSize=16;swimlaneFillColor=#000000;" parent="685odA_4j6y0BsG_PlKO-18" vertex="1">
          <mxGeometry x="140" width="74" height="40" as="geometry">
            <mxRectangle width="74" height="40" as="alternateBounds" />
          </mxGeometry>
        </mxCell>
        <mxCell id="685odA_4j6y0BsG_PlKO-21" value="Type of machine (`Low`, `Medium`, `High`)" style="shape=partialRectangle;html=1;whiteSpace=wrap;connectable=0;strokeColor=inherit;overflow=hidden;fillColor=none;top=0;left=0;bottom=0;right=0;pointerEvents=1;fontSize=16;swimlaneFillColor=#000000;" parent="685odA_4j6y0BsG_PlKO-18" vertex="1">
          <mxGeometry x="214" width="446" height="40" as="geometry">
            <mxRectangle width="446" height="40" as="alternateBounds" />
          </mxGeometry>
        </mxCell>
        <mxCell id="685odA_4j6y0BsG_PlKO-14" style="shape=tableRow;horizontal=0;startSize=0;swimlaneHead=0;swimlaneBody=0;strokeColor=inherit;top=0;left=0;bottom=0;right=0;collapsible=0;dropTarget=0;fillColor=none;points=[[0,0.5],[1,0.5]];portConstraint=eastwest;fontSize=16;swimlaneFillColor=#000000;" parent="685odA_4j6y0BsG_PlKO-1" vertex="1">
          <mxGeometry y="180" width="660" height="40" as="geometry" />
        </mxCell>
        <mxCell id="685odA_4j6y0BsG_PlKO-15" value="Air temperature [Â°C]" style="shape=partialRectangle;html=1;whiteSpace=wrap;connectable=0;strokeColor=inherit;overflow=hidden;fillColor=none;top=0;left=0;bottom=0;right=0;pointerEvents=1;fontSize=16;swimlaneFillColor=#000000;" parent="685odA_4j6y0BsG_PlKO-14" vertex="1">
          <mxGeometry width="140" height="40" as="geometry">
            <mxRectangle width="140" height="40" as="alternateBounds" />
          </mxGeometry>
        </mxCell>
        <mxCell id="685odA_4j6y0BsG_PlKO-16" value="Float" style="shape=partialRectangle;html=1;whiteSpace=wrap;connectable=0;strokeColor=inherit;overflow=hidden;fillColor=none;top=0;left=0;bottom=0;right=0;pointerEvents=1;fontSize=16;swimlaneFillColor=#000000;" parent="685odA_4j6y0BsG_PlKO-14" vertex="1">
          <mxGeometry x="140" width="74" height="40" as="geometry">
            <mxRectangle width="74" height="40" as="alternateBounds" />
          </mxGeometry>
        </mxCell>
        <mxCell id="685odA_4j6y0BsG_PlKO-17" value="Ambient air temperature in degrees Celsius" style="shape=partialRectangle;html=1;whiteSpace=wrap;connectable=0;strokeColor=inherit;overflow=hidden;fillColor=none;top=0;left=0;bottom=0;right=0;pointerEvents=1;fontSize=16;swimlaneFillColor=#000000;" parent="685odA_4j6y0BsG_PlKO-14" vertex="1">
          <mxGeometry x="214" width="446" height="40" as="geometry">
            <mxRectangle width="446" height="40" as="alternateBounds" />
          </mxGeometry>
        </mxCell>
        <mxCell id="685odA_4j6y0BsG_PlKO-26" style="shape=tableRow;horizontal=0;startSize=0;swimlaneHead=0;swimlaneBody=0;strokeColor=inherit;top=0;left=0;bottom=0;right=0;collapsible=0;dropTarget=0;fillColor=none;points=[[0,0.5],[1,0.5]];portConstraint=eastwest;fontSize=16;swimlaneFillColor=#000000;" parent="685odA_4j6y0BsG_PlKO-1" vertex="1">
          <mxGeometry y="220" width="660" height="40" as="geometry" />
        </mxCell>
        <mxCell id="685odA_4j6y0BsG_PlKO-27" value="Process temperature [Â°C]" style="shape=partialRectangle;html=1;whiteSpace=wrap;connectable=0;strokeColor=inherit;overflow=hidden;fillColor=none;top=0;left=0;bottom=0;right=0;pointerEvents=1;fontSize=16;swimlaneFillColor=#000000;" parent="685odA_4j6y0BsG_PlKO-26" vertex="1">
          <mxGeometry width="140" height="40" as="geometry">
            <mxRectangle width="140" height="40" as="alternateBounds" />
          </mxGeometry>
        </mxCell>
        <mxCell id="685odA_4j6y0BsG_PlKO-28" value="Float" style="shape=partialRectangle;html=1;whiteSpace=wrap;connectable=0;strokeColor=inherit;overflow=hidden;fillColor=none;top=0;left=0;bottom=0;right=0;pointerEvents=1;fontSize=16;swimlaneFillColor=#000000;" parent="685odA_4j6y0BsG_PlKO-26" vertex="1">
          <mxGeometry x="140" width="74" height="40" as="geometry">
            <mxRectangle width="74" height="40" as="alternateBounds" />
          </mxGeometry>
        </mxCell>
        <mxCell id="685odA_4j6y0BsG_PlKO-29" value="Internal temperature during machining" style="shape=partialRectangle;html=1;whiteSpace=wrap;connectable=0;strokeColor=inherit;overflow=hidden;fillColor=none;top=0;left=0;bottom=0;right=0;pointerEvents=1;fontSize=16;swimlaneFillColor=#000000;" parent="685odA_4j6y0BsG_PlKO-26" vertex="1">
          <mxGeometry x="214" width="446" height="40" as="geometry">
            <mxRectangle width="446" height="40" as="alternateBounds" />
          </mxGeometry>
        </mxCell>
        <mxCell id="685odA_4j6y0BsG_PlKO-22" style="shape=tableRow;horizontal=0;startSize=0;swimlaneHead=0;swimlaneBody=0;strokeColor=inherit;top=0;left=0;bottom=0;right=0;collapsible=0;dropTarget=0;fillColor=none;points=[[0,0.5],[1,0.5]];portConstraint=eastwest;fontSize=16;swimlaneFillColor=#000000;" parent="685odA_4j6y0BsG_PlKO-1" vertex="1">
          <mxGeometry y="260" width="660" height="40" as="geometry" />
        </mxCell>
        <mxCell id="685odA_4j6y0BsG_PlKO-23" value="Rotational speed [rpm]" style="shape=partialRectangle;html=1;whiteSpace=wrap;connectable=0;strokeColor=inherit;overflow=hidden;fillColor=none;top=0;left=0;bottom=0;right=0;pointerEvents=1;fontSize=16;swimlaneFillColor=#000000;" parent="685odA_4j6y0BsG_PlKO-22" vertex="1">
          <mxGeometry width="140" height="40" as="geometry">
            <mxRectangle width="140" height="40" as="alternateBounds" />
          </mxGeometry>
        </mxCell>
        <mxCell id="685odA_4j6y0BsG_PlKO-24" value="Integer" style="shape=partialRectangle;html=1;whiteSpace=wrap;connectable=0;strokeColor=inherit;overflow=hidden;fillColor=none;top=0;left=0;bottom=0;right=0;pointerEvents=1;fontSize=16;swimlaneFillColor=#000000;" parent="685odA_4j6y0BsG_PlKO-22" vertex="1">
          <mxGeometry x="140" width="74" height="40" as="geometry">
            <mxRectangle width="74" height="40" as="alternateBounds" />
          </mxGeometry>
        </mxCell>
        <mxCell id="685odA_4j6y0BsG_PlKO-25" value="Spindle rotation speed in revolutions per minute" style="shape=partialRectangle;html=1;whiteSpace=wrap;connectable=0;strokeColor=inherit;overflow=hidden;fillColor=none;top=0;left=0;bottom=0;right=0;pointerEvents=1;fontSize=16;swimlaneFillColor=#000000;" parent="685odA_4j6y0BsG_PlKO-22" vertex="1">
          <mxGeometry x="214" width="446" height="40" as="geometry">
            <mxRectangle width="446" height="40" as="alternateBounds" />
          </mxGeometry>
        </mxCell>
        <mxCell id="685odA_4j6y0BsG_PlKO-32" style="shape=tableRow;horizontal=0;startSize=0;swimlaneHead=0;swimlaneBody=0;strokeColor=inherit;top=0;left=0;bottom=0;right=0;collapsible=0;dropTarget=0;fillColor=none;points=[[0,0.5],[1,0.5]];portConstraint=eastwest;fontSize=16;swimlaneFillColor=#000000;" parent="685odA_4j6y0BsG_PlKO-1" vertex="1">
          <mxGeometry y="300" width="660" height="40" as="geometry" />
        </mxCell>
        <mxCell id="685odA_4j6y0BsG_PlKO-33" value="Torque [Nm]" style="shape=partialRectangle;html=1;whiteSpace=wrap;connectable=0;strokeColor=inherit;overflow=hidden;fillColor=none;top=0;left=0;bottom=0;right=0;pointerEvents=1;fontSize=16;swimlaneFillColor=#000000;" parent="685odA_4j6y0BsG_PlKO-32" vertex="1">
          <mxGeometry width="140" height="40" as="geometry">
            <mxRectangle width="140" height="40" as="alternateBounds" />
          </mxGeometry>
        </mxCell>
        <mxCell id="685odA_4j6y0BsG_PlKO-34" value="Float" style="shape=partialRectangle;html=1;whiteSpace=wrap;connectable=0;strokeColor=inherit;overflow=hidden;fillColor=none;top=0;left=0;bottom=0;right=0;pointerEvents=1;fontSize=16;swimlaneFillColor=#000000;" parent="685odA_4j6y0BsG_PlKO-32" vertex="1">
          <mxGeometry x="140" width="74" height="40" as="geometry">
            <mxRectangle width="74" height="40" as="alternateBounds" />
          </mxGeometry>
        </mxCell>
        <mxCell id="685odA_4j6y0BsG_PlKO-35" value="Torque applied to the spindle, measured in Newton-meters" style="shape=partialRectangle;html=1;whiteSpace=wrap;connectable=0;strokeColor=inherit;overflow=hidden;fillColor=none;top=0;left=0;bottom=0;right=0;pointerEvents=1;fontSize=16;swimlaneFillColor=#000000;" parent="685odA_4j6y0BsG_PlKO-32" vertex="1">
          <mxGeometry x="214" width="446" height="40" as="geometry">
            <mxRectangle width="446" height="40" as="alternateBounds" />
          </mxGeometry>
        </mxCell>
        <mxCell id="685odA_4j6y0BsG_PlKO-36" style="shape=tableRow;horizontal=0;startSize=0;swimlaneHead=0;swimlaneBody=0;strokeColor=inherit;top=0;left=0;bottom=0;right=0;collapsible=0;dropTarget=0;fillColor=none;points=[[0,0.5],[1,0.5]];portConstraint=eastwest;fontSize=16;swimlaneFillColor=#000000;" parent="685odA_4j6y0BsG_PlKO-1" vertex="1">
          <mxGeometry y="340" width="660" height="40" as="geometry" />
        </mxCell>
        <mxCell id="685odA_4j6y0BsG_PlKO-37" value="Tool wear [min]" style="shape=partialRectangle;html=1;whiteSpace=wrap;connectable=0;strokeColor=inherit;overflow=hidden;fillColor=none;top=0;left=0;bottom=0;right=0;pointerEvents=1;fontSize=16;swimlaneFillColor=#000000;" parent="685odA_4j6y0BsG_PlKO-36" vertex="1">
          <mxGeometry width="140" height="40" as="geometry">
            <mxRectangle width="140" height="40" as="alternateBounds" />
          </mxGeometry>
        </mxCell>
        <mxCell id="685odA_4j6y0BsG_PlKO-38" value="Integer" style="shape=partialRectangle;html=1;whiteSpace=wrap;connectable=0;strokeColor=inherit;overflow=hidden;fillColor=none;top=0;left=0;bottom=0;right=0;pointerEvents=1;fontSize=16;swimlaneFillColor=#000000;" parent="685odA_4j6y0BsG_PlKO-36" vertex="1">
          <mxGeometry x="140" width="74" height="40" as="geometry">
            <mxRectangle width="74" height="40" as="alternateBounds" />
          </mxGeometry>
        </mxCell>
        <mxCell id="685odA_4j6y0BsG_PlKO-39" value="Total duration the tool has been used, measured in minutes" style="shape=partialRectangle;html=1;whiteSpace=wrap;connectable=0;strokeColor=inherit;overflow=hidden;fillColor=none;top=0;left=0;bottom=0;right=0;pointerEvents=1;fontSize=16;swimlaneFillColor=#000000;" parent="685odA_4j6y0BsG_PlKO-36" vertex="1">
          <mxGeometry x="214" width="446" height="40" as="geometry">
            <mxRectangle width="446" height="40" as="alternateBounds" />
          </mxGeometry>
        </mxCell>
        <mxCell id="2XYRkLUEMQPlizlA2UG2-2" value="Table" style="shape=table;startSize=30;container=1;collapsible=0;childLayout=tableLayout;strokeColor=#6c8ebf;fontSize=16;fillColor=#dae8fc;fontStyle=1;swimlaneFillColor=default;rounded=1;swimlaneLine=1;" vertex="1" parent="1">
          <mxGeometry x="120" y="490" width="660" height="140" as="geometry" />
        </mxCell>
        <mxCell id="2XYRkLUEMQPlizlA2UG2-3" value="" style="shape=tableRow;horizontal=0;startSize=0;swimlaneHead=0;swimlaneBody=0;strokeColor=inherit;top=0;left=0;bottom=0;right=0;collapsible=0;dropTarget=0;fillColor=none;points=[[0,0.5],[1,0.5]];portConstraint=eastwest;fontSize=16;" vertex="1" parent="2XYRkLUEMQPlizlA2UG2-2">
          <mxGeometry y="30" width="660" height="30" as="geometry" />
        </mxCell>
        <mxCell id="2XYRkLUEMQPlizlA2UG2-4" value="Column Name" style="shape=partialRectangle;html=1;whiteSpace=wrap;connectable=0;strokeColor=inherit;overflow=hidden;fillColor=none;top=0;left=0;bottom=0;right=0;pointerEvents=1;fontSize=16;fontStyle=1" vertex="1" parent="2XYRkLUEMQPlizlA2UG2-3">
          <mxGeometry width="130" height="30" as="geometry">
            <mxRectangle width="130" height="30" as="alternateBounds" />
          </mxGeometry>
        </mxCell>
        <mxCell id="2XYRkLUEMQPlizlA2UG2-5" value="Type" style="shape=partialRectangle;html=1;whiteSpace=wrap;connectable=0;strokeColor=inherit;overflow=hidden;fillColor=none;top=0;left=0;bottom=0;right=0;pointerEvents=1;fontSize=16;fontStyle=1" vertex="1" parent="2XYRkLUEMQPlizlA2UG2-3">
          <mxGeometry x="130" width="80" height="30" as="geometry">
            <mxRectangle width="80" height="30" as="alternateBounds" />
          </mxGeometry>
        </mxCell>
        <mxCell id="2XYRkLUEMQPlizlA2UG2-6" value="Description" style="shape=partialRectangle;html=1;whiteSpace=wrap;connectable=0;strokeColor=inherit;overflow=hidden;fillColor=none;top=0;left=0;bottom=0;right=0;pointerEvents=1;fontSize=16;fontStyle=1" vertex="1" parent="2XYRkLUEMQPlizlA2UG2-3">
          <mxGeometry x="210" width="450" height="30" as="geometry">
            <mxRectangle width="450" height="30" as="alternateBounds" />
          </mxGeometry>
        </mxCell>
        <mxCell id="2XYRkLUEMQPlizlA2UG2-7" value="" style="shape=tableRow;horizontal=0;startSize=0;swimlaneHead=0;swimlaneBody=0;strokeColor=inherit;top=0;left=0;bottom=0;right=0;collapsible=0;dropTarget=0;fillColor=none;points=[[0,0.5],[1,0.5]];portConstraint=eastwest;fontSize=16;" vertex="1" parent="2XYRkLUEMQPlizlA2UG2-2">
          <mxGeometry y="60" width="660" height="40" as="geometry" />
        </mxCell>
        <mxCell id="2XYRkLUEMQPlizlA2UG2-8" value="`Failure Type`" style="shape=partialRectangle;html=1;whiteSpace=wrap;connectable=0;strokeColor=inherit;overflow=hidden;fillColor=none;top=0;left=0;bottom=0;right=0;pointerEvents=1;fontSize=16;" vertex="1" parent="2XYRkLUEMQPlizlA2UG2-7">
          <mxGeometry width="130" height="40" as="geometry">
            <mxRectangle width="130" height="40" as="alternateBounds" />
          </mxGeometry>
        </mxCell>
        <mxCell id="2XYRkLUEMQPlizlA2UG2-9" value="Boolean" style="shape=partialRectangle;html=1;whiteSpace=wrap;connectable=0;strokeColor=inherit;overflow=hidden;fillColor=none;top=0;left=0;bottom=0;right=0;pointerEvents=1;fontSize=16;" vertex="1" parent="2XYRkLUEMQPlizlA2UG2-7">
          <mxGeometry x="130" width="80" height="40" as="geometry">
            <mxRectangle width="80" height="40" as="alternateBounds" />
          </mxGeometry>
        </mxCell>
        <mxCell id="2XYRkLUEMQPlizlA2UG2-10" value="Type of failure event (`No Failure`, `Heat Dissipation`, `Power Failure`, `Overstrain`, `Tool Wear`, `Random Failures`)" style="shape=partialRectangle;html=1;whiteSpace=wrap;connectable=0;strokeColor=inherit;overflow=hidden;fillColor=none;top=0;left=0;bottom=0;right=0;pointerEvents=1;fontSize=16;labelBackgroundColor=none;" vertex="1" parent="2XYRkLUEMQPlizlA2UG2-7">
          <mxGeometry x="210" width="450" height="40" as="geometry">
            <mxRectangle width="450" height="40" as="alternateBounds" />
          </mxGeometry>
        </mxCell>
        <mxCell id="2XYRkLUEMQPlizlA2UG2-11" value="" style="shape=tableRow;horizontal=0;startSize=0;swimlaneHead=0;swimlaneBody=0;strokeColor=inherit;top=0;left=0;bottom=0;right=0;collapsible=0;dropTarget=0;fillColor=none;points=[[0,0.5],[1,0.5]];portConstraint=eastwest;fontSize=16;" vertex="1" parent="2XYRkLUEMQPlizlA2UG2-2">
          <mxGeometry y="100" width="660" height="40" as="geometry" />
        </mxCell>
        <mxCell id="2XYRkLUEMQPlizlA2UG2-12" value="Machine Failure" style="shape=partialRectangle;html=1;whiteSpace=wrap;connectable=0;strokeColor=inherit;overflow=hidden;fillColor=none;top=0;left=0;bottom=0;right=0;pointerEvents=1;fontSize=16;" vertex="1" parent="2XYRkLUEMQPlizlA2UG2-11">
          <mxGeometry width="130" height="40" as="geometry">
            <mxRectangle width="130" height="40" as="alternateBounds" />
          </mxGeometry>
        </mxCell>
        <mxCell id="2XYRkLUEMQPlizlA2UG2-13" value="Category" style="shape=partialRectangle;html=1;whiteSpace=wrap;connectable=0;strokeColor=inherit;overflow=hidden;fillColor=none;top=0;left=0;bottom=0;right=0;pointerEvents=1;fontSize=16;" vertex="1" parent="2XYRkLUEMQPlizlA2UG2-11">
          <mxGeometry x="130" width="80" height="40" as="geometry">
            <mxRectangle width="80" height="40" as="alternateBounds" />
          </mxGeometry>
        </mxCell>
        <mxCell id="2XYRkLUEMQPlizlA2UG2-14" value="&amp;nbsp; &amp;nbsp;Indicates whether a machine failure occurred&lt;div&gt;&amp;nbsp;(1 = Failure, 0 = No Failure)&lt;/div&gt;" style="shape=partialRectangle;html=1;whiteSpace=wrap;connectable=0;strokeColor=inherit;overflow=hidden;fillColor=none;top=0;left=0;bottom=0;right=0;pointerEvents=1;fontSize=16;" vertex="1" parent="2XYRkLUEMQPlizlA2UG2-11">
          <mxGeometry x="210" width="450" height="40" as="geometry">
            <mxRectangle width="450" height="40" as="alternateBounds" />
          </mxGeometry>
        </mxCell>
      </root>
    </mxGraphModel>
  </diagram>
</mxfile>
